<svg width="70" height="70" viewBox="0 0 70 70" fill="none" xmlns="http://www.w3.org/2000/svg">
<rect width="70" height="70" fill="#141414"/>
<path fill-rule="evenodd" clip-rule="evenodd" d="M51.7938 15.8149C48.5475 17.3079 47.5886 17.7001 46.8255 17.8472L45.8799 18.0296L40.7897 17.5764C35.08 17.0681 34.2524 17.0617 31.8589 17.508C31.1034 17.6489 29.9927 17.9437 29.3908 18.1631C28.7889 18.3824 25.4504 19.9078 21.9718 21.5527C15.4775 24.6237 15.1352 24.8179 14.885 25.5744C14.8327 25.7329 14.5568 25.9725 14.2425 26.1326C13.9395 26.2868 13.4993 26.6266 13.2642 26.8875C12.4967 27.7391 12.4194 28.1225 12.4194 31.0727V33.7509H6.20968H0V34.5807V35.4106H18.1468C28.1276 35.4106 36.2692 35.4455 36.2393 35.4884C35.2089 36.9629 34.6016 38.175 34.1992 39.5598C33.8453 40.7777 33.8508 43.4093 34.2098 44.6384C35.8159 50.137 41.5808 54.2498 48.9613 55.1623C58.937 56.3958 68.3048 51.3363 69.7978 43.9089C70.3664 41.0806 69.6829 38.4236 67.6317 35.4884C67.6018 35.4455 68.1224 35.4106 68.7887 35.4106H70V34.5807V33.7509H68.0288H66.0578L64.8592 32.837C61.2511 30.086 56.2231 28.6094 51.1593 28.8136C50.2278 28.8511 49.2594 28.9091 49.0071 28.9423C48.5745 28.9994 48.5484 28.9854 48.5484 28.6963C48.5484 28.4252 48.6178 28.3746 49.1482 28.2594C50.1941 28.032 51.8292 27.343 52.9234 26.6687C53.5055 26.3098 55.8553 25.159 58.1452 24.1111C60.435 23.0632 62.3864 22.1538 62.4816 22.0902C62.6163 22.0006 62.5274 21.8208 62.0845 21.2863L61.5139 20.5978L59.8648 21.3525C58.9578 21.7676 56.9773 22.6735 55.4637 23.3656C53.9501 24.0576 52.3685 24.843 51.9489 25.1107C50.6964 25.91 49.4554 26.4507 48.1538 26.7643C47.0279 27.0355 46.7606 27.0594 44.9496 27.0508C43.2929 27.0428 42.6204 26.9867 40.7863 26.7029C38.9345 26.4164 38.1655 26.353 35.7762 26.2897C34.2238 26.2485 32.786 26.1632 32.5812 26.0999C31.8698 25.8803 30.7661 25.0167 30.7661 24.6796C30.7661 24.6482 32.4808 24.6226 34.5766 24.6226H38.3871V23.7927V22.9629H33.7243H29.0614L24.1122 24.981C18.8992 27.1066 18.2566 27.3024 17.509 26.9941C17.0076 26.7872 16.8158 26.3429 17.0813 26.0032C17.278 25.7516 28.7439 20.2443 30.2016 19.7014C31.5627 19.1944 33.6566 18.8162 35.1318 18.8107C35.5638 18.8092 38.1218 19.0057 40.8161 19.2475C47.6016 19.8565 47.0708 19.9449 53.0786 17.2033C55.0502 16.3036 56.7418 15.515 56.8377 15.4508C56.9738 15.3598 56.8929 15.1919 56.4688 14.6851C56.1701 14.3279 55.9011 14.0198 55.8711 14.0003C55.8411 13.9808 54.0063 14.7974 51.7938 15.8149ZM13.0544 15.6182C12.6759 15.776 12.6131 15.8554 12.2686 16.6101C11.9134 17.3882 11.3401 17.8476 10.6145 17.9359C9.7331 18.0429 9.34613 18.1958 9.17141 18.5061C8.82875 19.114 9.32425 19.564 10.4818 19.6965C11.3091 19.7912 11.8718 20.2306 12.2683 21.0917C12.6284 21.8734 12.9476 22.133 13.5484 22.133C14.1444 22.133 14.4951 21.8619 14.816 21.1533C14.9825 20.7855 15.2524 20.3597 15.4157 20.2071C15.7493 19.8955 16.461 19.6435 17.0079 19.6435C17.5143 19.6435 18.0645 19.2114 18.0645 18.8137C18.0645 18.387 17.5157 17.9838 16.9349 17.9838C15.9493 17.9838 15.2854 17.5108 14.816 16.474C14.4118 15.5813 13.8258 15.2967 13.0544 15.6182ZM13.8256 18.6536C13.9602 18.7728 13.9536 18.8495 13.7942 19.0168C13.593 19.228 13.5913 19.228 13.3391 19.0231C13.1321 18.8548 13.1184 18.789 13.2639 18.66C13.4861 18.4631 13.6089 18.4617 13.8256 18.6536ZM5.12002 23.9179C4.93867 23.9823 4.70778 24.2306 4.57173 24.5074C3.9056 25.8633 3.5995 26.1169 2.4356 26.2767C1.75748 26.3698 1.12903 26.7519 1.12903 27.0711C1.12903 27.3983 1.5623 27.8359 1.94306 27.8933C3.49788 28.1275 3.88034 28.3646 4.36413 29.3942C4.71653 30.1439 5.06724 30.4315 5.62935 30.4315C6.24129 30.4315 6.58946 30.1656 6.91278 29.4517C7.07931 29.0839 7.34915 28.6581 7.51244 28.5055C7.84607 28.1939 8.55778 27.9419 9.10466 27.9419C9.61103 27.9419 10.1613 27.5098 10.1613 27.1121C10.1613 26.6855 9.61244 26.2823 9.03169 26.2823C8.04605 26.2823 7.38218 25.8092 6.91278 24.7725C6.5052 23.8722 5.96919 23.6167 5.12002 23.9179ZM28.6169 25.3293C28.6527 25.4083 28.5043 25.4513 28.2022 25.4491C27.7561 25.446 27.7461 25.4379 28.0085 25.2921C28.3106 25.1242 28.5299 25.1376 28.6169 25.3293ZM5.92234 26.952C6.05698 27.0712 6.05034 27.148 5.89101 27.3152C5.68976 27.5264 5.68806 27.5264 5.43587 27.3215C5.22883 27.1533 5.21514 27.0874 5.36065 26.9585C5.58292 26.7616 5.70571 26.7601 5.92234 26.952ZM31.429 27.4954L32.4841 27.8787L35.4708 27.9542C38.0228 28.0188 38.7556 28.0766 40.504 28.3511C41.8834 28.5675 43.1599 28.6937 44.4204 28.738L46.2903 28.8037V29.1396C46.2903 29.4196 46.2258 29.4872 45.9022 29.5462C45.1071 29.6913 42.6515 30.639 41.4784 31.2538C40.8111 31.6034 39.7076 32.3083 39.0261 32.8202L37.787 33.7509H26.2322H14.6774V31.1005C14.6774 28.8579 14.7127 28.3993 14.907 28.1183C15.2202 27.6656 15.2202 27.6656 15.4634 27.9207C15.8393 28.3153 16.8707 28.6834 17.7673 28.7432C18.8962 28.8184 20.134 28.526 22.0161 27.7392L23.498 27.1198L26.936 27.1159L30.3739 27.1121L31.429 27.4954ZM35 29.6016V30.4315H36.129H37.2581V29.6016V28.7718H36.129H35V29.6016ZM54.4085 30.5841C60.9931 31.3691 66.0574 34.9862 67.4838 39.9228C67.716 40.7262 67.716 43.3724 67.4838 44.1758C66.1013 48.9609 61.3389 52.4613 54.8286 53.4774C53.7356 53.6481 50.1354 53.6481 49.0423 53.4774C44.1371 52.7118 40.2017 50.5708 37.995 47.4671C35.5515 44.0306 35.5154 40.2389 37.8927 36.7597C40.9194 32.3303 47.7212 29.7869 54.4085 30.5841ZM20.3226 32.0912V32.921H21.4516H22.5806V32.0912V31.2613H21.4516H20.3226V32.0912Z" fill="white"/>
<path fill-rule="evenodd" clip-rule="evenodd" d="M41.0657 36.5008C41.6685 35.6063 42.8221 34.9129 44.1034 34.6749C44.3363 34.6317 46.4638 34.6047 48.8312 34.615C52.9899 34.633 53.1573 34.6415 53.7751 34.8677C54.7807 35.236 55.3748 35.6546 55.8977 36.3633L56.3816 37.0194L56.4283 39.3078L56.4751 41.5962L56.9793 41.2566C57.8616 40.6627 58.6355 40.449 59.9099 40.4472C61.2229 40.4453 61.9997 40.6576 62.922 41.27C64.1648 42.0953 64.5313 43.1964 64.2206 45.1716C63.8252 47.6852 63.2652 48.549 61.6161 49.1885L60.8978 49.4671H52.43H43.9623L43.0696 49.1114C42.1054 48.7271 41.5358 48.2904 41.0348 47.5513C40.7174 47.0829 40.7163 47.0643 40.7163 42.0504V37.0194L41.0657 36.5008ZM61.8836 45.5255C62.3036 43.4723 62.0665 42.6738 60.9153 42.2642C60.2693 42.0343 59.6944 42.0027 59.1366 42.1663C58.5859 42.3278 58.288 42.5739 57.8332 43.2434C57.0945 44.3306 56.7606 44.5156 54.1744 45.2707C53.3702 45.5055 52.5703 45.7948 52.3969 45.9134C51.6928 46.3952 51.9031 47.3694 52.7834 47.704C53.1547 47.8452 53.7494 47.8647 56.8725 47.8384L60.5269 47.8076L60.9561 47.5052C61.4801 47.136 61.6116 46.8553 61.8836 45.5255ZM53.152 36.5065C53.3662 36.6241 53.6724 36.8491 53.8324 37.0066C54.1087 37.2783 54.1255 37.449 54.1646 40.3839L54.2057 43.4751L53.0356 43.8185C51.4689 44.2785 50.9079 44.5494 50.4004 45.0915C49.709 45.8302 49.4972 46.9228 49.8979 47.6831C49.9916 47.8611 49.8493 47.8692 47.1657 47.8387C44.0647 47.8036 43.9692 47.7853 43.2652 47.0926C42.9834 46.8153 42.9729 46.6642 42.9322 42.3274C42.9091 39.864 42.9275 37.6982 42.9731 37.5144C43.0762 37.0991 43.6686 36.5694 44.2373 36.3843C44.5724 36.2752 45.5646 36.2495 48.7152 36.2683C52.5553 36.2913 52.7825 36.3036 53.152 36.5065Z" fill="#DB3138"/>
</svg>
