<svg width="57" height="52" viewBox="0 0 57 52" fill="none" xmlns="http://www.w3.org/2000/svg">
<path fill-rule="evenodd" clip-rule="evenodd" d="M2.27388 0.131381C1.58116 0.291865 0.399675 1.19108 0.187258 1.71952C-0.0624194 2.34071 -0.0624194 49.1055 0.187258 49.7267C0.416329 50.2965 1.58554 51.1559 2.36082 51.3242C2.8057 51.4208 7.94463 51.4504 24.3062 51.4504H45.6705L51.0711 47.4808L56.4719 43.5113V22.829C56.4719 7.15089 56.4312 2.04692 56.304 1.73488C56.2117 1.50852 55.8617 1.09885 55.5261 0.824462C54.4209 -0.079106 56.8774 -0.00555491 28.1833 0.00637509C10.0846 0.013948 2.6256 0.0499455 2.27388 0.131381ZM53.8671 1.9103L54.2136 2.16487V22.2432V42.3214H50.5956C48.1676 42.3214 46.7865 42.3628 46.3967 42.4475C45.6214 42.6159 44.4522 43.4752 44.2231 44.0451C44.1079 44.3316 44.0515 45.3467 44.0515 47.1313V49.7906H23.5092H2.96674L2.62038 49.5359L2.27388 49.2813V25.7231V2.16487L2.62038 1.9103L2.96674 1.65562H28.2437H53.5207L53.8671 1.9103ZM20.975 3.46068C19.2559 3.78372 18.8881 3.9717 14.7648 6.63468C12.9794 7.78785 11.328 8.81963 11.0952 8.92763C10.8623 9.03572 10.4494 9.12473 10.1778 9.12546C9.55532 9.12722 8.39825 9.52143 7.86319 9.91388C7.63821 10.079 7.30032 10.4588 7.11232 10.758C6.77866 11.289 6.77175 11.355 6.81578 13.559C6.86053 15.7981 6.86405 15.8204 7.25388 16.3642C7.7754 17.0917 8.60446 17.666 9.54812 17.9534C10.0495 18.1063 10.3189 18.2493 10.3189 18.3628C10.3189 18.4588 10.5419 18.8648 10.8143 19.2651C12.8896 22.3141 18.7546 22.318 20.8281 19.2716C21.1029 18.8677 21.3279 18.4735 21.3279 18.3956C21.3279 18.2782 22.318 18.2539 27.1146 18.2539C31.9113 18.2539 32.9014 18.2782 32.9014 18.3956C32.9014 18.4735 33.1244 18.8648 33.3968 19.2651C35.4721 22.3141 41.3371 22.318 43.4106 19.2716C43.6854 18.8677 43.9103 18.4735 43.9103 18.3956C43.9103 18.2851 44.2259 18.2539 45.3407 18.2539C46.1274 18.2539 47.0324 18.1971 47.3519 18.1277C48.1272 17.9594 49.2964 17.1 49.5255 16.5301C49.6384 16.2491 49.6971 15.2867 49.6971 13.7148C49.6971 11.5932 49.6694 11.3017 49.4501 11.1058C49.2649 10.9405 48.2178 10.6787 45.2676 10.0604C43.103 9.6066 41.319 9.22225 41.3031 9.20606C41.2871 9.18988 40.3269 8.1971 39.1696 6.99995C38.0121 5.80269 36.8206 4.64268 36.5218 4.42213C36.223 4.20158 35.5561 3.87398 35.0398 3.6942L34.1011 3.36731L27.8909 3.34771C23.2366 3.33298 21.5039 3.3613 20.975 3.46068ZM25.9855 6.99818V9.0211H20.2391C15.357 9.0211 14.5238 8.99962 14.6993 8.87846C15.9042 8.04678 19.9132 5.5503 20.2526 5.42021C21.1709 5.06843 21.8316 4.98907 23.9037 4.98222L25.9855 4.97527V6.99818ZM34.1011 5.22186C34.968 5.52239 35.0486 5.58806 36.9181 7.51688L38.4263 9.07297L34.3584 9.10461C32.1209 9.12193 29.8299 9.10627 29.267 9.06975L28.2437 9.00336V6.98937V4.97527L30.8196 4.97631C33.2305 4.97724 33.4405 4.99291 34.1011 5.22186ZM42.5862 11.2177L44.5786 11.6377L44.3504 11.9633C43.9967 12.4676 44.0508 13.4442 44.4592 13.93C44.9304 14.4904 45.6963 14.8311 46.6472 14.9032L47.4389 14.9633V15.524C47.4389 15.9811 47.3748 16.1319 47.0924 16.3394C46.7706 16.576 46.6454 16.5941 45.3281 16.5941C44.224 16.5941 43.9103 16.5627 43.9103 16.4523C43.9103 16.3744 43.6873 15.9831 43.4149 15.5828C42.8128 14.6983 41.9659 14.099 40.6895 13.6546C39.8369 13.3577 39.6184 13.3263 38.4059 13.3263C37.1933 13.3263 36.9748 13.3577 36.1222 13.6546C34.8459 14.099 33.9989 14.6983 33.3968 15.5828C33.1244 15.9831 32.9014 16.3744 32.9014 16.4523C32.9014 16.5698 31.9113 16.5941 27.1146 16.5941C22.318 16.5941 21.3279 16.5698 21.3279 16.4523C21.3279 16.3744 21.1049 15.9831 20.8325 15.5828C20.2303 14.6983 19.3834 14.099 18.107 13.6546C17.2544 13.3577 17.0359 13.3263 15.8234 13.3263C14.6108 13.3263 14.3924 13.3577 13.5397 13.6546C13.0213 13.8351 12.3156 14.1735 11.9718 14.4064C11.3532 14.8255 10.46 15.8967 10.46 16.2196C10.46 16.4408 10.2914 16.4302 9.86188 16.1819C9.32738 15.8729 9.04863 15.3447 9.04863 14.6409V14.0158L9.80175 13.7623C11.1849 13.2969 12.1764 12.2971 12.385 11.1575L12.4782 10.6487L26.5358 10.723L40.5935 10.7975L42.5862 11.2177ZM10.1237 11.1131C10.0291 11.4607 9.40868 12.1333 9.18257 12.1333C9.00981 12.1333 9.01024 11.7023 9.18328 11.3678C9.2904 11.1607 9.88093 10.8107 10.1601 10.7888C10.1892 10.7865 10.1728 10.9325 10.1237 11.1131ZM16.9525 12.4445V13.2744H18.6462H20.3399V12.4445V11.6146H18.6462H16.9525V12.4445ZM30.502 12.4445V13.2744H32.1957H33.8894V12.4445V11.6146H32.1957H30.502V12.4445ZM47.4389 12.8594C47.4389 13.2447 47.4106 13.2744 47.0437 13.2744C46.6018 13.2744 46.3097 13.1092 46.3097 12.8594C46.3097 12.6096 46.6018 12.4445 47.0437 12.4445C47.4106 12.4445 47.4389 12.4742 47.4389 12.8594ZM16.8656 15.0604C18.0785 15.3238 19.2107 16.4649 19.2107 17.424C19.2107 18.7094 17.5722 19.9137 15.8234 19.9137C14.0745 19.9137 12.436 18.7094 12.436 17.424C12.436 16.772 12.7589 16.2459 13.4898 15.7076C14.4799 14.9783 15.5463 14.7738 16.8656 15.0604ZM39.448 15.0604C40.661 15.3238 41.7932 16.4649 41.7932 17.424C41.7932 18.7094 40.1547 19.9137 38.4059 19.9137C36.657 19.9137 35.0185 18.7094 35.0185 17.424C35.0185 16.772 35.3414 16.2459 36.0722 15.7076C37.0623 14.9783 38.1288 14.7738 39.448 15.0604ZM14.6943 17.424V18.2539H15.8234H16.9525V17.424V16.5941H15.8234H14.6943V17.424ZM37.2767 17.424V18.2539H38.4059H39.535V17.424V16.5941H38.4059H37.2767V17.424ZM38.2647 23.8039L36.7878 24.8932H33.4267H30.0657L29.7194 25.1479L29.3729 25.4024V28.2128V31.0232L29.7194 31.2778L30.0657 31.5325H33.8894H37.713L38.0594 31.2778L38.4059 31.0232V28.5529V26.0824L39.8878 24.9969C40.7029 24.3999 41.3698 23.8621 41.3698 23.8018C41.3698 23.6645 40.0686 22.7147 39.8805 22.7147C39.8041 22.7147 39.077 23.2048 38.2647 23.8039ZM18.0816 26.553V27.3829H22.5981H27.1146V26.553V25.7231H22.5981H18.0816V26.553ZM42.9224 26.553V27.3829H47.4389H51.9554V26.553V25.7231H47.4389H42.9224V26.553ZM33.8487 27.0493C33.483 27.3223 33.1906 27.5907 33.1989 27.6458C33.2072 27.7009 33.5587 27.9762 33.9797 28.2575L34.7452 28.7691L35.4464 28.2615L36.1476 27.7538V28.8133V29.8727H33.8894H31.6311V28.2128V26.553H33.0724H34.5139L33.8487 27.0493ZM15.8234 29.8727V30.7026H21.469H27.1146V29.8727V29.0427H21.469H15.8234V29.8727ZM40.6641 29.8727V30.7026H46.3097H51.9554V29.8727V29.0427H46.3097H40.6641V29.8727ZM13.424 32.103L11.9471 33.1923H8.58597H5.22499L4.87863 33.447L4.53213 33.7016V36.512V39.3224L4.87863 39.5769L5.22499 39.8316H9.04863H12.8723L13.2186 39.5769L13.5651 39.3224V36.852V34.3816L15.0471 33.296C15.8622 32.699 16.5291 32.1612 16.5291 32.101C16.5291 31.9636 15.2279 31.0138 15.0398 31.0138C14.9634 31.0138 14.2362 31.504 13.424 32.103ZM38.2647 32.103L36.7878 33.1923H33.4267H30.0657L29.7194 33.447L29.3729 33.7016V36.512V39.3224L29.7194 39.5769L30.0657 39.8316H33.8894H37.713L38.0594 39.5769L38.4059 39.3224V36.852V34.3816L39.8878 33.296C40.7029 32.699 41.3698 32.1612 41.3698 32.101C41.3698 31.9636 40.0686 31.0138 39.8805 31.0138C39.8041 31.0138 39.077 31.504 38.2647 32.103ZM18.0816 34.8521V35.682H22.5981H27.1146V34.8521V34.0222H22.5981H18.0816V34.8521ZM42.9224 34.8521V35.682H47.4389H51.9554V34.8521V34.0222H47.4389H42.9224V34.8521ZM9.00798 35.3484C8.64228 35.6215 8.34984 35.8898 8.35817 35.9449C8.3665 36 8.71793 36.2753 9.13896 36.5567L9.9045 37.0682L10.6057 36.5606L11.3069 36.0529V37.1124V38.1718H9.04863H6.79038V36.512V34.8521H8.23171H9.67317L9.00798 35.3484ZM33.8487 35.3484C33.483 35.6215 33.1906 35.8898 33.1989 35.9449C33.2072 36 33.5587 36.2753 33.9797 36.5567L34.7452 37.0682L35.4464 36.5606L36.1476 36.0529V37.1124V38.1718H33.8894H31.6311V36.512V34.8521H33.0724H34.5139L33.8487 35.3484ZM15.8234 38.1718V39.0017H21.469H27.1146V38.1718V37.3419H21.469H15.8234V38.1718ZM40.6641 38.1718V39.0017H46.3097H51.9554V38.1718V37.3419H46.3097H40.6641V38.1718ZM13.424 40.4022L11.9471 41.4914H8.58597H5.22499L4.87863 41.7461L4.53213 42.0007V44.8111V47.6215L4.87863 47.8761L5.22499 48.1307H9.04863H12.8723L13.2186 47.8761L13.5651 47.6215V45.1511V42.6807L15.0471 41.5952C15.8622 40.9982 16.5291 40.4604 16.5291 40.4001C16.5291 40.2628 15.2279 39.3129 15.0398 39.3129C14.9634 39.3129 14.2362 39.8031 13.424 40.4022ZM18.0816 43.1513V43.9812H22.5981H27.1146V43.1513V42.3214H22.5981H18.0816V43.1513ZM9.00798 43.6476C8.64228 43.9206 8.34984 44.189 8.35817 44.244C8.3665 44.2991 8.71793 44.5745 9.13896 44.8558L9.9045 45.3673L10.6057 44.8597L11.3069 44.352V45.4115V46.4709H9.04863H6.79038V44.8111V43.1513H8.23171H9.67317L9.00798 43.6476ZM52.5199 44.008C52.5199 44.0228 51.1226 45.061 49.4148 46.3153L46.3097 48.5958V46.5431C46.3097 43.788 46.0495 43.9812 49.7613 43.9812C51.2786 43.9812 52.5199 43.9932 52.5199 44.008ZM15.8234 46.4709V47.3008H21.469H27.1146V46.4709V45.641H21.469H15.8234V46.4709Z" fill="white"/>
<path fill-rule="evenodd" clip-rule="evenodd" d="M13.4238 23.8037L11.9469 24.8929H8.58582H5.22484L4.87848 25.1477L4.53198 25.4022V28.2126V31.0231L4.87848 31.2776L5.22484 31.5323H9.04848H12.8721L13.2185 31.2776L13.565 31.0231V28.5527V26.0823L15.047 24.9967C15.862 24.3998 16.5289 23.8619 16.5289 23.8016C16.5289 23.6643 15.2278 22.7145 15.0396 22.7145C14.9633 22.7145 14.2361 23.2046 13.4238 23.8037ZM9.00783 27.0491C8.64214 27.322 8.34969 27.5905 8.35802 27.6455C8.36635 27.7006 8.71779 27.976 9.13881 28.2573L9.90436 28.7688L10.6055 28.2612L11.3067 27.7535V28.813V29.8724H9.04848H6.79023V28.2125V26.5527H8.23156H9.67303L9.00783 27.0491Z" fill="#DB3138"/>
<path fill-rule="evenodd" clip-rule="evenodd" d="M13.4238 32.1071L11.9469 33.1963H8.58582H5.22484L4.87848 33.451L4.53198 33.7056V36.516V39.3264L4.87848 39.5809L5.22484 39.8357H9.04848H12.8721L13.2185 39.5809L13.565 39.3264V36.8561V34.3856L15.047 33.3C15.862 32.7031 16.5289 32.1653 16.5289 32.105C16.5289 31.9677 15.2278 31.0178 15.0396 31.0178C14.9633 31.0178 14.2361 31.5079 13.4238 32.1071ZM9.00783 35.3525C8.64214 35.6255 8.34969 35.8939 8.35802 35.949C8.36635 36.004 8.71779 36.2794 9.13881 36.5608L9.90436 37.0723L10.6055 36.5647L11.3067 36.057V37.1165V38.1759H9.04848H6.79023V36.516V34.8562H8.23156H9.67303L9.00783 35.3525Z" fill="#DB3138"/>
<path fill-rule="evenodd" clip-rule="evenodd" d="M13.4241 40.4062L11.9472 41.4955H8.58607H5.22509L4.87873 41.7502L4.53223 42.0048V44.8152V47.6256L4.87873 47.8801L5.22509 48.1349H9.04872H12.8724L13.2187 47.8801L13.5652 47.6256V45.1553V42.6848L15.0472 41.5992C15.8623 41.0023 16.5292 40.4645 16.5292 40.4042C16.5292 40.2668 15.228 39.317 15.0399 39.317C14.9635 39.317 14.2363 39.8071 13.4241 40.4062ZM9.00799 43.6519C8.6423 43.9248 8.34985 44.1932 8.35818 44.2483C8.36651 44.3033 8.71795 44.5787 9.13897 44.8601L9.90452 45.3716L10.6057 44.864L11.3069 44.3563V45.4158V46.4752H9.04864H6.79039V44.8153V43.1555H8.23172H9.67319L9.00799 43.6519Z" fill="#DB3138"/>
<path fill-rule="evenodd" clip-rule="evenodd" d="M38.2363 32.1071L36.7594 33.1963H33.3983H30.0373L29.691 33.451L29.3445 33.7056V36.516V39.3264L29.691 39.5809L30.0373 39.8357H33.861H37.6846L38.031 39.5809L38.3775 39.3264V36.8561V34.3856L39.8595 33.3C40.6745 32.7031 41.3414 32.1653 41.3414 32.105C41.3414 31.9677 40.0403 31.0178 39.8521 31.0178C39.7758 31.0178 39.0486 31.5079 38.2363 32.1071ZM33.8203 35.3525C33.4546 35.6255 33.1622 35.8939 33.1705 35.949C33.1788 36.004 33.5303 36.2794 33.9513 36.5608L34.7169 37.0723L35.418 36.5647L36.1192 36.057V37.1165V38.1759H33.861H31.6027V36.516V34.8562H33.0441H34.4855L33.8203 35.3525Z" fill="#DB3138"/>
<path fill-rule="evenodd" clip-rule="evenodd" d="M38.2363 23.8081L36.7594 24.8973H33.3983H30.0373L29.691 25.1521L29.3445 25.4066V28.217V31.0275L29.691 31.282L30.0373 31.5367H33.861H37.6846L38.031 31.282L38.3775 31.0275V28.5571V26.0867L39.8595 25.0011C40.6745 24.4042 41.3414 23.8663 41.3414 23.806C41.3414 23.6687 40.0403 22.7189 39.8521 22.7189C39.7758 22.7189 39.0486 23.209 38.2363 23.8081ZM33.8203 27.0536C33.4546 27.3265 33.1622 27.595 33.1705 27.65C33.1788 27.7051 33.5303 27.9805 33.9513 28.2618L34.7169 28.7733L35.418 28.2657L36.1192 27.7581V28.8175V29.877H33.861H31.6027V28.217V26.5573H33.0441H34.4855L33.8203 27.0536Z" fill="#DB3138"/>
</svg>
