<svg width="20" height="16" viewBox="0 0 20 16" fill="none" xmlns="http://www.w3.org/2000/svg">
<path d="M0.571533 4.67777L9.70353 9.4272C9.79513 9.47483 9.89686 9.49969 10.0001 9.49969C10.1033 9.49969 10.2051 9.47483 10.2967 9.4272L19.4287 4.67862V12.9286C19.4287 13.6402 19.1565 14.3248 18.6678 14.842C18.1791 15.3592 17.5111 15.6698 16.8007 15.7101L16.643 15.7143H3.35725C2.6457 15.7144 1.96111 15.4421 1.44391 14.9535C0.926705 14.4648 0.616104 13.7967 0.575819 13.0863L0.571533 12.9286V4.67777ZM3.35725 0.285767H16.643C17.3545 0.28572 18.0391 0.557956 18.5563 1.04663C19.0735 1.5353 19.3841 2.20336 19.4244 2.91377L19.4287 3.07148V3.2292L10.0001 8.13205L0.571533 3.2292V3.07148C0.571487 2.35993 0.843722 1.67534 1.33239 1.15814C1.82107 0.640938 2.48913 0.330337 3.19953 0.290052L3.35725 0.285767H16.643H3.35725Z" fill="white"/>
</svg>
